<?xml version="1.0" standalone="no"?>
<!DOCTYPE svg PUBLIC "-//W3C//DTD SVG 20010904//EN"
 "http://www.w3.org/TR/2001/REC-SVG-20010904/DTD/svg10.dtd">
<svg version="1.0" xmlns="http://www.w3.org/2000/svg"
 width="2048.000000pt" height="2048.000000pt" viewBox="0 0 2048.000000 2048.000000"
 preserveAspectRatio="xMidYMid meet">
<metadata>
Created by potrace 1.11, written by Peter Selinger 2001-2013
</metadata>
<g transform="translate(0.000000,2048.000000) scale(0.100000,-0.100000)"
fill="#000000" stroke="none">
<path d="M10146 17803 c-4 -4 -62 -8 -129 -10 -113 -2 -163 -5 -307 -18 -60
-6 -83 -9 -235 -31 -55 -8 -120 -18 -145 -21 -25 -3 -47 -8 -50 -12 -3 -3 -21
-7 -40 -9 -39 -2 -75 -8 -75 -12 0 -1 -11 -3 -25 -5 -34 -5 -239 -55 -362 -90
-10 -3 -26 -7 -35 -9 -10 -2 -30 -9 -45 -15 -16 -6 -28 -8 -28 -5 0 4 -6 2
-12 -3 -7 -6 -26 -14 -43 -18 -16 -5 -34 -9 -40 -11 -11 -3 -121 -42 -145 -51
-8 -4 -18 -5 -22 -5 -5 1 -8 -3 -8 -9 0 -5 -4 -8 -10 -4 -5 3 -17 1 -27 -5
-10 -5 -85 -39 -168 -74 -82 -35 -207 -91 -277 -125 -70 -34 -130 -62 -134
-61 -4 1 -10 -2 -13 -7 -3 -5 -43 -29 -88 -53 -46 -24 -83 -48 -83 -53 0 -5
-7 -7 -15 -3 -8 3 -15 2 -15 -2 0 -4 -15 -16 -32 -27 -18 -10 -49 -28 -68 -40
-19 -12 -39 -22 -44 -23 -5 0 -12 -4 -15 -9 -10 -14 -118 -83 -131 -83 -6 0
-8 -4 -5 -10 3 -5 1 -10 -4 -10 -6 0 -50 -28 -97 -62 -48 -35 -94 -67 -103
-73 -9 -5 -18 -12 -21 -15 -3 -3 -48 -39 -100 -80 -52 -41 -102 -82 -111 -90
-9 -8 -43 -38 -75 -66 -132 -115 -174 -154 -167 -154 5 0 2 -4 -6 -9 -17 -11
-220 -211 -214 -211 2 0 -6 -10 -19 -22 -27 -27 -162 -180 -198 -227 -14 -18
-37 -46 -53 -63 -15 -18 -44 -56 -64 -85 -20 -29 -40 -53 -45 -53 -4 0 -8 -4
-8 -10 0 -5 -25 -42 -55 -82 -30 -40 -55 -79 -55 -85 0 -7 -4 -13 -9 -13 -9 0
-71 -96 -71 -110 0 -5 -4 -10 -8 -12 -4 -1 -25 -32 -47 -68 -21 -36 -45 -73
-53 -82 -8 -10 -11 -18 -7 -18 4 0 1 -8 -8 -18 -10 -10 -14 -22 -10 -25 3 -4
1 -7 -5 -7 -6 0 -28 -35 -49 -77 -21 -43 -41 -80 -44 -83 -4 -3 -28 -50 -54
-105 -26 -55 -52 -103 -57 -106 -5 -3 -9 -9 -9 -13 1 -3 0 -8 0 -11 -1 -3 -2
-8 -3 -12 -1 -5 -9 -22 -19 -39 -9 -17 -13 -34 -10 -38 4 -3 2 -6 -3 -6 -6 0
-18 -25 -29 -55 -10 -30 -23 -55 -28 -55 -6 0 -8 -3 -4 -6 3 -4 0 -19 -9 -35
-8 -16 -12 -29 -8 -29 4 0 2 -6 -4 -13 -6 -7 -23 -46 -37 -87 -14 -41 -29 -82
-32 -90 -4 -8 -7 -17 -7 -20 -1 -3 -5 -11 -9 -17 -5 -7 -6 -13 -3 -13 3 0 -4
-21 -14 -46 -11 -25 -18 -50 -14 -55 3 -5 0 -9 -5 -9 -6 0 -10 -3 -10 -7 1 -5
0 -10 -1 -13 -1 -3 -3 -12 -5 -20 -2 -8 -18 -63 -34 -122 -17 -59 -32 -117
-34 -128 -2 -11 -6 -22 -9 -26 -4 -3 -4 -12 -1 -20 3 -8 0 -14 -5 -14 -6 0
-11 -8 -11 -17 -1 -22 -8 -78 -11 -78 -2 0 -7 -20 -25 -120 -10 -49 -20 -97
-22 -105 -3 -8 -7 -33 -9 -54 -3 -22 -7 -51 -10 -65 -3 -14 -7 -39 -9 -56 -1
-16 -3 -30 -5 -30 -1 0 -4 -18 -6 -40 -2 -22 -6 -58 -9 -80 -5 -39 -9 -82 -22
-255 -12 -154 -7 -780 6 -780 3 0 7 -24 8 -52 2 -62 10 -163 13 -163 1 0 4
-18 6 -40 2 -22 6 -53 9 -70 2 -16 6 -46 9 -65 3 -19 17 -96 31 -170 15 -74
28 -146 31 -160 2 -14 7 -32 10 -40 4 -8 8 -24 10 -35 5 -29 12 -60 14 -60 3
0 11 -39 13 -62 1 -13 5 -23 8 -23 4 0 9 -12 11 -27 9 -54 43 -168 51 -174 5
-3 8 -10 8 -15 0 -7 12 -54 24 -94 2 -7 7 -19 44 -120 18 -47 34 -93 36 -102
2 -9 8 -25 14 -36 6 -11 7 -22 4 -26 -3 -3 -2 -6 3 -6 6 0 16 -17 23 -37 13
-36 34 -85 69 -163 9 -19 15 -38 14 -42 -1 -5 2 -8 8 -8 5 0 10 -6 10 -12 0
-16 144 -300 185 -366 21 -34 45 -82 43 -85 -2 -1 7 -13 19 -27 13 -13 23 -30
23 -37 0 -7 5 -13 10 -13 6 0 10 -6 10 -13 0 -7 9 -23 20 -35 11 -12 20 -28
20 -36 0 -7 7 -17 16 -20 9 -4 14 -9 11 -12 -3 -4 -1 -11 4 -18 9 -10 111
-154 141 -200 7 -11 20 -27 29 -36 9 -10 18 -22 20 -27 5 -14 49 -70 77 -100
12 -13 22 -27 22 -30 0 -5 17 -26 101 -120 15 -18 27 -33 25 -33 -3 0 10 -15
27 -34 18 -18 63 -66 100 -107 154 -167 278 -285 447 -429 47 -39 97 -83 112
-96 14 -13 29 -24 32 -24 3 0 16 -10 29 -22 13 -13 34 -30 46 -38 13 -8 30
-21 37 -28 8 -7 14 -11 14 -8 0 3 11 -5 24 -17 35 -32 54 -47 61 -47 6 0 23
-13 56 -42 10 -10 21 -18 24 -18 3 0 39 -22 80 -50 41 -27 79 -50 85 -50 5 0
10 -5 10 -10 0 -6 8 -14 18 -17 9 -4 41 -21 70 -40 29 -18 54 -33 57 -33 3 0
34 -18 70 -40 36 -22 69 -40 74 -40 5 0 14 -7 21 -15 7 -8 16 -13 20 -10 5 3
16 -2 24 -11 9 -8 16 -12 16 -8 0 3 6 2 13 -4 19 -16 181 -96 190 -94 4 1 7
-2 7 -8 0 -6 3 -9 8 -8 4 1 21 -5 37 -12 17 -7 32 -14 35 -15 3 -1 31 -13 64
-28 32 -15 61 -27 63 -27 3 0 19 -7 36 -15 48 -22 175 -70 237 -90 30 -10 61
-22 68 -28 6 -5 12 -6 12 -2 0 4 6 2 13 -4 8 -6 17 -8 20 -4 4 3 13 0 22 -7 8
-7 15 -10 15 -7 0 4 19 -2 43 -12 23 -10 86 -29 140 -41 53 -13 97 -27 97 -30
0 -4 10 -6 23 -5 12 1 27 -2 33 -7 7 -5 16 -8 20 -7 5 1 11 0 14 -1 23 -9 241
-53 370 -75 143 -25 216 -34 292 -38 27 -1 48 -4 48 -7 0 -6 18 -7 192 -14 53
-2 100 -6 105 -9 10 -6 483 0 588 8 44 4 101 7 128 7 26 0 47 4 47 8 0 4 19 6
43 5 23 -1 47 1 52 4 10 5 48 10 127 14 21 1 38 5 38 8 0 4 28 10 63 13 34 4
105 17 157 28 52 11 104 21 115 23 11 1 20 3 20 5 0 1 11 4 25 5 36 5 54 10
65 16 6 4 18 5 28 4 9 -2 17 0 17 4 0 4 6 8 13 8 10 0 76 18 207 54 19 5 42
12 50 14 8 2 16 4 18 5 1 2 5 3 10 4 4 1 13 5 20 9 6 5 12 6 12 2 0 -3 14 1
30 10 17 9 30 14 30 11 0 -2 42 12 93 31 50 19 98 35 105 35 6 1 12 5 12 9 0
5 7 6 15 3 8 -4 15 -1 15 5 0 6 7 11 15 11 9 0 28 6 43 14 15 8 36 16 47 18
11 1 22 5 25 8 8 8 84 43 95 44 6 1 85 38 178 83 92 46 170 82 173 82 4 0 10
3 13 8 5 8 88 57 148 87 13 6 23 14 23 19 0 4 5 7 11 7 13 0 133 72 137 83 2
4 7 7 12 7 14 0 120 72 120 82 0 5 4 7 8 4 5 -3 18 4 30 14 12 11 24 20 27 20
5 0 85 58 150 107 6 5 34 26 63 48 28 21 52 43 52 48 0 4 4 6 9 3 5 -4 11 -3
13 2 1 4 35 34 73 66 39 32 71 63 73 67 2 5 8 9 13 9 21 0 509 483 509 504 0
2 15 20 33 39 49 53 80 92 180 222 50 66 93 122 96 125 4 3 33 46 66 95 33 50
63 92 68 93 4 2 7 9 7 16 0 7 9 22 20 34 12 12 18 22 14 22 -3 0 5 15 18 32
13 18 45 69 70 113 26 44 55 96 67 115 36 63 158 304 182 360 12 30 28 58 33
62 6 4 7 8 2 8 -5 0 -2 7 5 17 8 9 13 18 12 19 -2 2 9 30 22 61 14 31 28 67
31 80 4 13 10 23 16 23 5 0 7 4 3 10 -3 5 -1 17 4 27 14 26 24 57 23 66 -1 4
2 7 8 7 6 0 9 3 8 8 -1 4 22 79 51 167 29 88 54 167 56 175 2 8 4 17 5 20 1 3
3 10 4 15 1 6 5 17 9 25 4 8 18 62 33 120 24 99 30 126 38 175 2 11 4 20 5 20
3 0 13 56 15 83 0 12 4 22 8 22 4 0 8 10 8 23 -1 12 2 38 5 57 34 217 46 293
50 340 14 133 17 159 21 225 6 97 6 612 0 715 -7 100 -10 134 -38 345 -11 88
-21 166 -21 173 0 6 -4 12 -8 12 -5 0 -6 7 -3 15 4 8 3 23 -1 33 -5 9 -9 28
-10 42 -1 14 -3 25 -5 25 -1 0 -4 11 -6 25 -2 14 -6 39 -9 55 -3 17 -8 39 -10
50 -7 38 -66 270 -72 285 -3 8 -8 24 -10 35 -2 11 -6 27 -10 35 -3 8 -7 21 -9
28 -4 19 -84 264 -94 287 -4 11 -32 81 -61 155 -29 74 -57 138 -63 142 -6 4
-7 8 -2 8 5 0 3 6 -3 13 -6 8 -8 17 -4 20 3 4 1 7 -5 7 -7 0 -11 3 -10 8 1 9
-22 62 -77 171 -83 167 -109 216 -120 223 -5 4 -6 8 -2 8 5 0 -1 12 -12 26
-11 15 -18 30 -15 35 3 5 0 9 -5 9 -6 0 -11 7 -11 15 0 8 -4 15 -10 15 -5 0
-10 7 -10 15 0 8 -4 15 -10 15 -5 0 -10 7 -10 15 0 8 -5 15 -11 15 -5 0 -8 3
-6 8 3 4 -21 47 -54 95 -32 49 -59 92 -59 96 0 4 -9 16 -20 26 -11 10 -17 22
-14 26 3 5 1 9 -4 9 -5 0 -25 25 -43 55 -18 30 -37 55 -41 55 -4 0 -8 7 -8 16
0 8 -4 12 -10 9 -5 -3 -10 -1 -10 5 0 13 -59 92 -72 98 -5 2 -8 8 -8 13 0 6
-13 24 -30 42 -16 18 -30 35 -30 39 0 4 -13 21 -30 36 -16 16 -30 32 -30 36 0
3 -8 14 -17 24 -10 10 -45 49 -78 87 -33 38 -106 116 -162 174 -57 57 -103
108 -103 112 0 5 -4 9 -10 9 -5 0 -38 28 -73 63 -35 34 -84 80 -111 102 -26
22 -62 54 -80 70 -17 17 -47 41 -65 55 -19 14 -42 32 -51 40 -10 8 -27 22 -37
30 -10 9 -65 50 -123 92 -58 43 -113 84 -122 93 -10 8 -22 15 -26 15 -5 0 -18
9 -30 20 -12 12 -22 17 -22 13 0 -4 -4 -3 -8 2 -4 6 -45 35 -92 64 -47 30 -96
62 -110 71 -14 9 -42 25 -62 35 -21 9 -38 22 -38 27 0 5 -4 7 -9 3 -5 -3 -16
1 -24 9 -7 8 -47 31 -88 51 -41 21 -77 42 -80 47 -3 5 -9 9 -13 8 -3 0 -58 24
-122 55 -63 30 -119 55 -124 55 -6 0 -10 4 -10 8 0 4 -10 9 -22 9 -13 1 -24 7
-26 13 -2 5 -9 10 -17 10 -7 0 -37 11 -66 23 -62 27 -94 39 -94 36 0 -1 -11 4
-25 11 -14 8 -29 15 -35 17 -32 9 -328 113 -332 117 -3 2 -11 2 -19 -1 -8 -3
-14 -1 -14 4 0 5 -12 10 -26 11 -15 1 -33 7 -40 13 -8 6 -20 9 -28 6 -7 -3
-17 -2 -22 3 -8 6 -54 18 -216 56 -10 2 -28 6 -40 10 -49 11 -74 16 -98 19
-14 2 -25 4 -25 5 0 3 -57 12 -87 14 -16 0 -28 4 -28 7 0 3 -44 11 -97 18 -54
7 -109 15 -123 18 -14 3 -41 7 -60 8 -19 2 -57 6 -85 9 -121 12 -228 18 -332
19 -62 1 -113 4 -113 8 0 8 -32 5 -48 -5 -6 -4 -12 -3 -12 1 0 5 -20 9 -45 9
-25 0 -45 -4 -45 -9 0 -5 -6 -4 -13 2 -8 6 -17 8 -21 4z"/>
</g>
</svg>
